<svg width="34" height="34" fill="none" xmlns="http://www.w3.org/2000/svg"><path d="M29.75 34H4.25c-1.173 0-2.175-.415-3.005-1.245C.415 31.925 0 30.923 0 29.75V4.25c0-1.173.415-2.175 1.245-3.005C2.075.415 3.077 0 4.25 0h25.5c1.173 0 2.175.415 3.005 1.245.83.83 1.245 1.832 1.245 3.005v25.5c0 1.173-.415 2.175-1.245 3.005-.83.83-1.832 1.245-3.005 1.245zM17 12.75c-1.173 0-2.175.415-3.005 1.245-.83.83-1.245 1.832-1.245 3.005 0 1.173.415 2.175 1.245 3.005.83.83 1.832 1.245 3.005 1.245 1.173 0 2.175-.415 3.005-1.245.83-.83 1.245-1.832 1.245-3.005 0-1.173-.415-2.175-1.245-3.005-.83-.83-1.832-1.245-3.005-1.245zm12.75-7.438c0-.287-.105-.536-.315-.747-.21-.21-.46-.315-.747-.315h-4.25c-.288 0-.537.105-.748.315-.21.21-.315.46-.315.747v4.25c0 .288.105.537.315.748.21.21.46.315.747.315h4.25c.288 0 .537-.105.748-.315.21-.21.315-.46.315-.748v-4.25zm0 10.625c0-.287-.105-.536-.315-.747-.21-.21-.46-.315-.747-.315h-2.125c-.288 0-.537.105-.748.315-.21.21-.315.46-.315.748V17c0 2.346-.83 4.35-2.49 6.01-1.66 1.66-3.664 2.49-6.01 2.49-2.346 0-4.35-.83-6.01-2.49C9.33 21.35 8.5 19.346 8.5 17v-1.063c0-.287-.105-.536-.315-.747-.21-.21-.46-.315-.748-.315H5.313c-.287 0-.536.105-.747.315-.21.21-.315.46-.315.748v12.75c0 .287.105.536.315.747.21.21.46.315.747.315h23.375c.288 0 .537-.105.748-.315.21-.21.315-.46.315-.747v-12.75z" fill="#fff"/></svg>